# xmcd
#
# Track frame offsets: 
#        150
#        14276
#        23634
#        37429
#        48277
#        61435
#        71985
#        83591
#        91081
#        100806
#        111369
#        121010
#        134824
#        156270
#        167614
#        178297
#        188468
#        197030
#        208037
#        220015
#        232622
#        241715
#        250107
#        259501
#        274330
#
# Disc length: 3816 seconds
#
# Revision: 0
# Processed by: cddbd v1.5.2PL0 Copyright (c) Steve Scherf et al.
# Submitted via: ExactAudioCopy v0.99pb4
#
DISCID=580ee619
DTITLE=Various Artist - Rare Blues and Soul From Nashville The 1960s
DYEAR=2009
DGENRE=R&B
TTITLE0=Sam Baker - Slow Down Baby
TTITLE1=Sam Baker - He'll Be Sorry 
TTITLE2=Sam Baker - You'd Better Check What You Got
TTITLE3=The Mighty Men - No Way Out
TTITLE4=The Mighty Men - I Had A Dream
TTITLE5=The Mighty Men - You Too Much
TTITLE6=The Mighty Men - Somethin' Else
TTITLE7=The Mighty Men - Don't Stop Now
TTITLE8=Rudy Greene - Oh Baby
TTITLE9=Earl Gaines - Let Me Down Easy
TTITLE10=Earl Gaines - Show Me Something
TTITLE11=Dee Brown - Bad Habit
TTITLE12=Dee Brown - Heap Of People
TTITLE13=Eddie James - Reap What You Sow
TTITLE14=Gene Allison - Walking In The Park
TTITLE15=Bobby Lindsey - Sugar Booger Baby
TTITLE16=Levert Allison - Can You Handle It
TTITLE17=Levert Allison - The Shape I'm In
TTITLE18=Levert Allison - You Made A World
TTITLE19=Rodge Martin - When She Touches Me
TTITLE20=Rodge Martin - Close My Eyes
TTITLE21=Luvenia Lewis - Let Me Be The One
TTITLE22=Luvenia Lewis - Not Strong Enough
TTITLE23=Dottie Clark - Since I Fell For You
TTITLE24=Roscoe Shelton - Yesterday's Mistake 
EXTD=
EXTT0=
EXTT1=
EXTT2=
EXTT3=
EXTT4=
EXTT5=
EXTT6=
EXTT7=
EXTT8=
EXTT9=
EXTT10=
EXTT11=
EXTT12=
EXTT13=
EXTT14=
EXTT15=
EXTT16=
EXTT17=
EXTT18=
EXTT19=
EXTT20=
EXTT21=
EXTT22=
EXTT23=
EXTT24=
PLAYORDER=
